<?xml version="1.0" encoding="utf-8"?>
<!-- Generator: Adobe Illustrator 23.0.3, SVG Export Plug-In . SVG Version: 6.00 Build 0)  -->
<svg version="1.1" id="Camada_1" xmlns="http://www.w3.org/2000/svg" xmlns:xlink="http://www.w3.org/1999/xlink" x="0px" y="0px"
	 viewBox="0 0 64 80" style="enable-background:new 0 0 64 80;" xml:space="preserve">
<path d="M54.3,48c-0.3-2.9-2.4-5.3-5.2-6.1l-10.5-2.8c-0.8-2.1-1-4.5-0.8-7.2l0.3-0.2c2.4-2.1,3.9-5.1,3.9-8.4V21c1,0,2-0.9,2-2
	v-7.8c0-0.8-0.5-1.5-1.2-1.8L42,9c0-2.9-1.8-4-3.9-4H21.7c-0.5,0-0.8-0.1-1.2-0.3L16,2v8c0,2.4,2,4.4,4,4.9V19c0,1.1,1,2,2,2v2.4
	c0,3.2,1.3,6.3,3.7,8.4l0.2,0.2c0.2,2.7-0.1,5.1-0.9,7.2L14.6,42c-2.8,0.7-4.9,3.2-5.2,6.1L8,62h0.9h1.2h43.6h1.2h0.8L54.3,48z
	 M24,23.4V15h14.8c0.7,0,1.2,0.5,1.2,1.2v7.2c0,2.6-1.2,5.1-3.2,6.8l-2.4,2c-0.5,0.5-1.3,0.7-2,0.7h-1c-0.7,0-1.4-0.3-2-0.7l-2.3-2
	C25,28.6,24,26.1,24,23.4z M27.9,33.7l0.1,0.1c0.9,0.8,2.1,1.2,3.3,1.2h1c1.2,0,2.3-0.4,3.3-1.2l0.1-0.1c-0.1,2.4,0.2,4.1,1,6.1
	c-3.3,4.2-6.4,4.2-9.7,0C27.7,37.8,28,36.1,27.9,33.7z M35.6,57.2l-1.3,1.5L27.4,53l6.9-5.8l1.3,1.5l-5,4.3L35.6,57.2z M37.9,59.3
	L36,58.7l4-12l1.9,0.6L37.9,59.3z M43.6,58.8l-1.3-1.5l5.1-4.2l-5.1-4.2l1.3-1.5l6.9,5.8L43.6,58.8z"/>
</svg>
